# xmcd
#
# Track frame offsets:
#	150
#	15975
#	44980
#	74199
#	101995
#	132803
#	168378
#	204423
#	237129
#
# Disc length: 3606 seconds
#
# Revision: 0
# Processed by: cddbd v1.5.1PL0 Copyright (c) Steve Scherf et al.
# Submitted via: EasyCDDAExtractor 8.2.2.1
#
DISCID=820e1409
DTITLE=Dannii Minogue - <Unknown>
DYEAR=2005
DGENRE=Pop
TTITLE0=Perfection (Radio Edit)
TTITLE1=Perfection (Original 12" Vox)
TTITLE2=Perfection (Original 12" Inst.)
TTITLE3=Perfection (Dancing DJ's Remix)
TTITLE4=Perfection (Kenny Hayes Remix)
TTITLE5=Perfection (Koishii and Hush Remix)
TTITLE6=Perfection (Seamas Haji and Emmanuel Remix)
TTITLE7=Perfection (Bobby Blanco and Miki Moto Remix)
TTITLE8=Perfection (Bobby Blanco and Miki Moto Dub)
EXTD=
EXTT0=
EXTT1=
EXTT2=
EXTT3=
EXTT4=
EXTT5=
EXTT6=
EXTT7=
EXTT8=
PLAYORDER=
